<svg width="412" height="307" viewBox="0 0 412 307" fill="none" xmlns="http://www.w3.org/2000/svg">
<g clip-path="url(#clip0_37_457)">
<mask id="mask0_37_457" style="mask-type:luminance" maskUnits="userSpaceOnUse" x="0" y="0" width="412" height="307">
<path d="M411.698 0H0V306.62H411.698V0Z" fill="white"/>
</mask>
<g mask="url(#mask0_37_457)">
<path d="M269.183 33.6039H16.3539C8.67925 33.6039 2.45776 39.8433 2.45776 47.5399V110.42C2.45776 118.117 8.67925 124.356 16.3539 124.356H269.183C276.857 124.356 283.079 118.117 283.079 110.42V47.5399C283.079 39.8433 276.857 33.6039 269.183 33.6039Z" fill="#1DCDFF"/>
<path d="M283.078 90.4055V118.921C283.078 121.925 277.044 124.357 269.643 124.357H15.9094C8.48679 124.357 2.47412 121.925 2.47412 118.921V102.416C19.5795 106.96 39.0549 110.025 59.0295 111.928C83.168 114.228 108.047 114.899 132.822 114.998C162.446 115.12 192.565 114.399 220.45 110.366C246.004 106.685 269.698 99.885 283.078 90.4055Z" fill="#1AB5E1"/>
<path d="M103.916 33.8364C77.4791 35.63 40.7611 33.897 17.9447 40.4936C7.13185 43.6131 4.45464 49.6761 2.71558 54.6882L2.74301 40.6587C2.74301 38.8596 2.89661 36.9009 5.76583 35.5255C9.31528 33.8309 15.5529 33.6989 21.0444 33.7044C48.0081 33.7099 77.4846 32.5215 103.916 33.8364Z" fill="#4ED9FF"/>
<path d="M268.919 33.7156H16.0904C8.41581 33.7156 2.19434 39.9551 2.19434 47.6517V110.532C2.19434 118.229 8.41581 124.468 16.0904 124.468H268.919C276.593 124.468 282.815 118.229 282.815 110.532V47.6517C282.815 39.9551 276.593 33.7156 268.919 33.7156Z" stroke="#314E5D" stroke-width="8" stroke-miterlimit="10"/>
<path d="M395.909 174.45H106.911C99.2371 174.45 93.0154 180.689 93.0154 188.386V251.266C93.0154 258.963 99.2371 265.202 106.911 265.202H395.909C403.584 265.202 409.806 258.963 409.806 251.266V188.386C409.806 180.689 403.584 174.45 395.909 174.45Z" fill="#1DCDFF"/>
<path d="M409.806 231.251V259.767C409.806 262.771 403.014 265.203 394.637 265.203H108.184C99.8071 265.203 93.0154 262.771 93.0154 259.767V243.262C112.326 247.806 134.314 250.871 156.862 252.774C184.083 255.074 212.194 255.745 240.167 255.844C273.599 255.965 307.612 255.245 339.091 251.212C367.953 247.531 394.702 240.731 409.806 231.251Z" fill="#1AB5E1"/>
<path d="M207.547 174.682C177.703 176.476 136.229 174.743 110.494 181.34C98.2765 184.465 95.2646 190.528 93.2952 195.54L93.3336 181.505C93.3336 179.706 93.5036 177.747 96.7459 176.372C100.756 174.677 107.795 174.545 113.994 174.55C144.43 174.556 177.714 173.368 207.547 174.682Z" fill="#4ED9FF"/>
<path d="M395.608 174.561H106.61C98.9353 174.561 92.7136 180.801 92.7136 188.497V251.377C92.7136 259.074 98.9353 265.313 106.61 265.313H395.608C403.282 265.313 409.504 259.074 409.504 251.377V188.497C409.504 180.801 403.282 174.561 395.608 174.561Z" stroke="#314E5D" stroke-width="8" stroke-miterlimit="10"/>
<path d="M356.695 2.70148H57.1149C52.3096 2.70148 48.4141 6.60816 48.4141 11.4273V294.027C48.4141 298.846 52.3096 302.753 57.1149 302.753H356.695C361.501 302.753 365.396 298.846 365.396 294.027V11.4273C365.396 6.60816 361.501 2.70148 356.695 2.70148Z" fill="white"/>
<path d="M366.768 14.7941V58.9902H49.791V14.7941C49.791 7.44376 53.6861 1.4743 58.4918 1.4743H358.067C362.873 1.4743 366.768 7.44376 366.768 14.7941Z" fill="#DCEAEF"/>
<path d="M356.317 2.20071H56.7364C51.9311 2.20071 48.0356 6.10743 48.0356 10.9266V295.694C48.0356 300.513 51.9311 304.42 56.7364 304.42H356.317C361.122 304.42 365.018 300.513 365.018 295.694V10.9266C365.018 6.10743 361.122 2.20071 356.317 2.20071Z" stroke="#314E5D" stroke-width="8" stroke-miterlimit="10"/>
<path d="M77.9013 39.7333C81.5369 39.7333 84.4846 36.7774 84.4846 33.1311C84.4846 29.4848 81.5369 26.529 77.9013 26.529C74.2658 26.529 71.3181 29.4848 71.3181 33.1311C71.3181 36.7774 74.2658 39.7333 77.9013 39.7333Z" fill="#EEA248"/>
<path d="M99.2968 39.7333C102.932 39.7333 105.88 36.7774 105.88 33.1311C105.88 29.4848 102.932 26.529 99.2968 26.529C95.6613 26.529 92.7136 29.4848 92.7136 33.1311C92.7136 36.7774 95.6613 39.7333 99.2968 39.7333Z" fill="#EEA248"/>
<path d="M120.692 39.7333C124.328 39.7333 127.276 36.7774 127.276 33.1311C127.276 29.4848 124.328 26.529 120.692 26.529C117.057 26.529 114.109 29.4848 114.109 33.1311C114.109 36.7774 117.057 39.7333 120.692 39.7333Z" fill="#EEA248"/>
<path d="M106.884 123.724C106.884 117.43 109.035 113.898 113.16 113.898C117.286 113.898 119.436 117.43 119.436 123.724C119.436 130.018 117.286 133.578 113.16 133.578C109.035 133.578 106.884 130.046 106.884 123.724ZM116.825 123.724C116.825 118.173 115.481 115.912 113.166 115.912C110.85 115.912 109.506 118.173 109.506 123.724C109.506 129.276 110.883 131.564 113.166 131.564C115.448 131.564 116.825 129.292 116.825 123.724ZM113.16 121.931C113.518 121.927 113.869 122.031 114.169 122.228C114.468 122.426 114.702 122.709 114.841 123.04C114.979 123.372 115.017 123.737 114.947 124.09C114.878 124.442 114.706 124.766 114.453 125.02C114.199 125.275 113.876 125.447 113.524 125.517C113.173 125.586 112.809 125.549 112.478 125.409C112.148 125.27 111.866 125.036 111.669 124.736C111.472 124.436 111.368 124.084 111.372 123.724C111.37 123.488 111.415 123.254 111.505 123.036C111.594 122.818 111.726 122.62 111.892 122.452C112.058 122.286 112.256 122.154 112.474 122.064C112.692 121.974 112.925 121.929 113.16 121.931Z" fill="#426372"/>
<path d="M129.58 117.019L125.037 119.77L123.825 118.004L129.86 114.218H132.087V131.197H135.966V133.244H124.933V131.197H129.585V117.019H129.58Z" fill="#426372"/>
<path d="M167.384 116.797L168.596 118.701L158.963 124.61L168.596 130.54L167.274 132.395L156.779 125.825V123.372L167.384 116.797Z" fill="#426372"/>
<path d="M182.624 133.247V124.34H175.739V133.253H173.128V114.233H175.739V122.183H182.619V114.233H185.23V133.253L182.624 133.247Z" fill="#426372"/>
<path d="M196.948 116.44V133.254H194.337V116.44H188.478V114.24H202.9L202.626 116.44H196.948Z" fill="#426372"/>
<path d="M217.175 133.249L216.626 123.505C216.489 120.826 216.489 117.739 216.517 117.129H216.429L213.406 129.843H210.899L207.761 117.118H207.651C207.651 117.75 207.706 121.041 207.596 123.494L207.13 133.238H204.711L205.808 114.218H209.275L212.194 126.916H212.303L215.085 114.218H218.579L219.677 133.238L217.175 133.249Z" fill="#426372"/>
<path d="M224.043 133.247V114.233H226.655V130.942H235.268L234.966 133.231L224.043 133.247Z" fill="#426372"/>
<path d="M251.122 123.367V125.821L240.633 132.39L239.311 130.536L248.944 124.605L239.311 118.696L240.523 116.793L251.122 123.367Z" fill="#426372"/>
<path d="M106.884 156.834C106.884 150.539 109.035 147.007 113.16 147.007C117.286 147.007 119.436 150.539 119.436 156.834C119.436 163.128 117.286 166.704 113.16 166.704C109.035 166.704 106.884 163.15 106.884 156.834ZM116.825 156.834C116.825 151.282 115.481 149.021 113.166 149.021C110.85 149.021 109.506 151.282 109.506 156.834C109.506 162.385 110.883 164.674 113.166 164.674C115.448 164.674 116.825 162.407 116.825 156.834ZM113.16 155.04C113.518 155.037 113.869 155.141 114.169 155.338C114.468 155.536 114.702 155.818 114.841 156.15C114.979 156.481 115.017 156.847 114.947 157.199C114.878 157.552 114.706 157.876 114.453 158.13C114.199 158.384 113.876 158.557 113.524 158.626C113.173 158.695 112.809 158.658 112.478 158.519C112.148 158.38 111.866 158.146 111.669 157.845C111.472 157.545 111.368 157.193 111.372 156.834C111.369 156.597 111.414 156.363 111.503 156.144C111.592 155.925 111.724 155.726 111.89 155.559C112.057 155.391 112.255 155.258 112.473 155.169C112.69 155.078 112.924 155.033 113.16 155.034V155.04Z" fill="#426372"/>
<path d="M126.667 164.229H135.28L134.978 166.352H123.693V164.339C130.244 157.824 132.257 155.2 132.257 152.328C132.284 151.898 132.219 151.468 132.066 151.065C131.914 150.662 131.677 150.297 131.372 149.994C131.067 149.691 130.701 149.456 130.298 149.307C129.895 149.157 129.465 149.095 129.037 149.126C127.468 149.126 126.392 149.709 125.235 151.167L123.474 149.924C124.961 148.075 126.831 146.997 129.174 146.997C132.641 146.997 134.874 149.198 134.874 152.246C134.868 155.563 132.252 158.875 126.667 164.229Z" fill="#426372"/>
<path d="M167.384 149.902L168.596 151.806L158.963 157.715L168.596 163.646L167.274 165.5L156.785 158.931V156.471L167.384 149.902Z" fill="#426372"/>
<path d="M178.685 166.358H173.457V147.339H178.295C181.68 147.339 185.071 148.439 185.071 152.142C185.091 153.099 184.771 154.034 184.168 154.777C183.565 155.521 182.718 156.026 181.779 156.202V156.312C183.677 156.67 185.91 157.775 185.91 160.922C185.866 165.087 182.234 166.358 178.685 166.358ZM178.74 149.407H176.068V155.366H178.959C181.154 155.366 182.377 154.452 182.377 152.301C182.377 150.15 181 149.407 178.74 149.407ZM179.151 157.467H176.068V164.235H179.042C180.89 164.235 183.118 163.684 183.118 160.977C183.118 158.271 181.329 157.467 179.151 157.467Z" fill="#426372"/>
<path d="M195.686 166.705C191.034 166.705 188.642 162.815 188.642 156.906C188.642 151.113 191.034 147.003 195.686 147.003C200.338 147.003 202.73 150.953 202.73 156.857C202.736 162.656 200.333 166.705 195.686 166.705ZM195.686 149.176C192.603 149.176 191.363 151.883 191.363 156.879C191.363 161.874 192.685 164.526 195.686 164.526C198.769 164.526 200.004 161.874 200.004 156.824C200.004 151.773 198.769 149.154 195.686 149.154V149.176Z" fill="#426372"/>
<path d="M210.564 166.358H206.132V147.339H210.263C214.75 147.339 219.205 148.857 219.205 156.752C219.205 164.647 214.586 166.358 210.564 166.358ZM210.844 149.44H208.754V164.295H210.872C213.571 164.295 216.429 162.914 216.429 156.763C216.429 150.293 213.406 149.435 210.844 149.435V149.44Z" fill="#426372"/>
<path d="M230.018 159.04V166.357H227.374V159.067L220.988 147.332H223.879L228.729 156.63H228.816L233.688 147.332H236.431L230.018 159.04Z" fill="#426372"/>
<path d="M251.122 156.47V158.924L240.633 165.493L239.311 163.639L248.944 157.708L239.311 151.799L240.523 149.896L251.122 156.47Z" fill="#426372"/>
<path d="M106.884 189.939C106.884 183.645 109.035 180.113 113.16 180.113C117.286 180.113 119.436 183.645 119.436 189.939C119.436 196.233 117.286 199.793 113.16 199.793C109.035 199.793 106.884 196.26 106.884 189.939ZM116.825 189.939C116.825 184.388 115.481 182.126 113.166 182.126C110.85 182.126 109.506 184.388 109.506 189.939C109.506 195.49 110.883 197.779 113.166 197.779C115.448 197.779 116.825 195.512 116.825 189.939ZM113.16 188.162C113.518 188.159 113.869 188.263 114.169 188.46C114.468 188.658 114.702 188.94 114.841 189.272C114.979 189.603 115.017 189.968 114.947 190.321C114.878 190.673 114.706 190.997 114.453 191.252C114.199 191.506 113.876 191.679 113.524 191.748C113.173 191.817 112.809 191.78 112.478 191.641C112.148 191.502 111.866 191.268 111.669 190.967C111.472 190.667 111.368 190.315 111.372 189.955C111.37 189.719 111.415 189.486 111.505 189.267C111.594 189.049 111.726 188.851 111.892 188.684C112.058 188.517 112.256 188.385 112.474 188.296C112.692 188.206 112.925 188.16 113.16 188.162Z" fill="#426372"/>
<path d="M128.921 199.791C127.808 199.825 126.702 199.613 125.68 199.17C124.658 198.727 123.745 198.063 123.007 197.227L124.653 195.846C125.172 196.444 125.815 196.922 126.537 197.246C127.259 197.57 128.042 197.733 128.833 197.722C131.39 197.722 132.937 196.286 132.937 193.965C132.937 191.313 131.291 190.432 129.097 190.432H127.638L127.939 188.474H128.921C130.737 188.474 132.443 187.456 132.443 185.244C132.443 183.225 130.902 182.119 128.949 182.119C127.303 182.119 126.206 182.702 124.96 183.858L123.583 182.339C125.046 180.896 127.018 180.091 129.069 180.1C132.701 180.1 134.961 182.301 134.961 184.876C134.963 185.914 134.604 186.922 133.947 187.725C133.289 188.528 132.374 189.077 131.357 189.277V189.387C132.524 189.443 133.621 189.959 134.411 190.822C135.199 191.686 135.616 192.827 135.57 193.998C135.581 197.277 132.91 199.791 128.921 199.791Z" fill="#426372"/>
<path d="M167.384 183.006L168.596 184.909L158.963 190.818L168.596 196.749L167.269 198.614L156.779 192.012V189.558L167.384 183.006Z" fill="#426372"/>
<path d="M182.624 199.462V190.549H175.739V199.462H173.128V180.459H175.739V188.409H182.619V180.459H185.23V199.478H182.619L182.624 199.462Z" fill="#426372"/>
<path d="M193.108 182.533V188.744H200.097V190.841H193.108V197.382H201.671V199.451H190.513V180.459H201.485L201.183 182.555L193.108 182.533Z" fill="#426372"/>
<path d="M215.77 194.686H208.469L207.009 199.462H204.398L210.537 180.459H213.828L219.989 199.462H217.246L215.77 194.686ZM209.11 192.563H215.145L212.199 182.819H212.089L209.11 192.563Z" fill="#426372"/>
<path d="M227.072 199.462H222.639V180.459H226.77C231.257 180.459 235.712 181.977 235.712 189.872C235.712 197.767 231.087 199.462 227.072 199.462ZM227.346 182.538H225.256V197.393H227.373C230.072 197.393 232.931 196.012 232.931 189.861C232.936 183.397 229.935 182.533 227.346 182.533V182.538Z" fill="#426372"/>
<path d="M242.641 182.533V188.744H249.614V190.841H242.641V197.382H251.205V199.451H240.03V180.459H251.002L250.7 182.555L242.641 182.533Z" fill="#426372"/>
<path d="M263.773 191.072L269.331 199.462H266.22L261.134 191.402H258.715V199.462H256.104V180.459H261.085C265.82 180.459 268.294 182.274 268.294 185.839C268.31 188.667 266.33 190.406 263.773 191.072ZM261.348 182.483H258.737V189.383H261.381C264.026 189.383 265.534 188.392 265.534 185.823C265.523 183.446 264.179 182.483 261.343 182.483H261.348Z" fill="#426372"/>
<path d="M284.132 189.58V192.011L273.642 198.614L272.32 196.759L281.954 190.829L272.32 184.92L273.533 183.016L284.132 189.58Z" fill="#426372"/>
<path d="M106.884 223.042C106.884 216.748 109.035 213.216 113.16 213.216C117.286 213.216 119.431 216.77 119.431 223.042C119.431 229.314 117.28 232.896 113.155 232.896C109.029 232.896 106.884 229.364 106.884 223.042ZM116.825 223.042C116.825 217.491 115.481 215.23 113.166 215.23C110.85 215.23 109.506 217.491 109.506 223.042C109.506 228.593 110.883 230.882 113.166 230.882C115.448 230.882 116.825 228.615 116.825 223.042ZM113.16 221.249C113.518 221.246 113.869 221.351 114.167 221.549C114.466 221.748 114.699 222.031 114.837 222.362C114.975 222.694 115.011 223.059 114.941 223.411C114.872 223.763 114.699 224.087 114.445 224.341C114.191 224.594 113.868 224.766 113.517 224.835C113.166 224.904 112.802 224.866 112.472 224.727C112.141 224.588 111.86 224.353 111.663 224.053C111.467 223.753 111.363 223.401 111.366 223.042C111.364 222.805 111.41 222.571 111.5 222.353C111.589 222.134 111.722 221.936 111.888 221.768C112.056 221.602 112.254 221.47 112.472 221.381C112.69 221.291 112.924 221.246 113.16 221.249Z" fill="#426372"/>
<path d="M133.519 228.011V232.567H131.072V228.011H123.309V226.218L128.866 213.211L130.984 214.097L125.97 225.998H131.061L131.313 221.046H133.508V225.998H135.899V228.017L133.519 228.011Z" fill="#426372"/>
<path d="M167.384 216.111L168.596 218.015L158.963 223.924L168.596 229.854L167.274 231.709L156.785 225.139V222.686L167.384 216.111Z" fill="#426372"/>
<path d="M174.34 235.438L172.299 234.525L184.05 210.207L186.064 211.175L174.34 235.438Z" fill="#426372"/>
<path d="M199.142 232.567V223.654H192.241V232.567H189.63V213.547H192.241V221.497H199.142V213.547H201.754V232.567H199.142Z" fill="#426372"/>
<path d="M209.632 215.671V221.882H216.621V223.979H209.632V230.52H218.195V232.589H207.02V213.547H217.992L217.691 215.643L209.632 215.671Z" fill="#426372"/>
<path d="M232.273 227.774H224.976L223.517 232.549H220.906L227.044 213.529H230.336L236.475 232.549H233.732L232.273 227.774ZM225.613 225.65H231.647L228.701 215.906H228.586L225.613 225.65Z" fill="#426372"/>
<path d="M243.579 232.567H239.146V213.547H243.277C247.765 213.547 252.22 215.066 252.22 222.961C252.22 230.856 247.6 232.567 243.579 232.567ZM243.853 215.671H241.763V230.526H243.881C246.58 230.526 249.438 229.145 249.438 222.994C249.438 216.502 246.437 215.671 243.853 215.671Z" fill="#426372"/>
<path d="M259.143 215.671V221.882H266.132V223.979H259.143V230.52H267.718V232.589H256.532V213.547H267.504L267.169 215.671H259.143Z" fill="#426372"/>
<path d="M280.275 224.171L285.821 232.567H282.711L277.647 224.507H275.222V232.567H272.611V213.547H277.592C282.327 213.547 284.801 215.363 284.801 218.928C284.817 221.772 282.837 223.511 280.275 224.171ZM277.856 215.588H275.244V222.493H277.889C280.533 222.493 282.042 221.503 282.042 218.933C282.036 216.557 280.686 215.588 277.85 215.588H277.856Z" fill="#426372"/>
<path d="M300.634 222.686V225.139L290.144 231.709L288.822 229.854L298.439 223.924L288.806 218.015L290.018 216.111L300.634 222.686Z" fill="#426372"/>
</g>
</g>
<defs>
<clipPath id="clip0_37_457">
<rect width="412" height="307" fill="white"/>
</clipPath>
</defs>
</svg>
