<svg width="538" height="287" viewBox="0 0 538 287" fill="none" xmlns="http://www.w3.org/2000/svg">
<g clip-path="url(#clip0_37_960)">
<mask id="mask0_37_960" style="mask-type:luminance" maskUnits="userSpaceOnUse" x="0" y="0" width="538" height="287">
<path d="M538 0H0V287H538V0Z" fill="white"/>
</mask>
<g mask="url(#mask0_37_960)">
<g opacity="0.3">
<path opacity="0.3" d="M120.78 99.2212V260.131C120.78 261.735 120.462 263.323 119.842 264.804C119.222 266.285 118.314 267.629 117.17 268.759C116.026 269.889 114.669 270.783 113.176 271.389C111.683 271.995 110.084 272.301 108.472 272.289H87.3755C91.4852 272.289 95.4267 270.665 98.3328 267.773C101.239 264.882 102.871 260.961 102.871 256.872C102.871 252.783 101.239 248.862 98.3328 245.97C95.4267 243.079 91.4852 241.455 87.3755 241.455H15.496C11.3862 241.455 7.44474 239.831 4.53867 236.939C1.63261 234.048 0 230.127 0 226.038C0 221.949 1.63261 218.028 4.53867 215.136C7.44474 212.245 11.3862 210.621 15.496 210.621H54.7673C58.8773 210.621 62.8188 208.996 65.7246 206.105C68.6307 203.214 70.2635 199.292 70.2635 195.204C70.2635 191.115 68.6307 187.193 65.7246 184.302C62.8188 181.411 58.8773 179.786 54.7673 179.786H15.496C11.3862 179.786 7.44474 178.162 4.53867 175.271C1.63261 172.38 0 168.458 0 164.369C0 160.28 1.63261 156.359 4.53867 153.468C7.44474 150.577 11.3862 148.952 15.496 148.952H66.0794C70.1894 148.952 74.1309 147.328 77.0367 144.437C79.9428 141.545 81.5756 137.624 81.5756 133.535C81.5756 129.446 79.9428 125.525 77.0367 122.634C74.1309 119.742 70.1894 118.118 66.0794 118.118H36.8142C32.7043 118.118 28.7629 116.494 25.8568 113.603C22.9507 110.711 21.3181 106.79 21.3181 102.701C21.3181 98.6122 22.9507 94.691 25.8568 91.7996C28.7629 88.9082 32.7043 87.284 36.8142 87.284H108.472C111.691 87.2603 114.788 88.5004 117.093 90.7357C119.397 92.9706 120.722 96.0198 120.78 99.2212Z" fill="#BDDFE9"/>
<path opacity="0.3" d="M417.22 33.0377V194.014C417.22 195.613 417.536 197.195 418.153 198.672C418.767 200.148 419.67 201.489 420.808 202.619C421.942 203.748 423.292 204.643 424.778 205.252C426.262 205.862 427.856 206.174 429.46 206.171H450.625C446.513 206.171 442.573 204.547 439.667 201.656C436.76 198.765 435.129 194.843 435.129 190.755C435.129 186.665 436.76 182.744 439.667 179.853C442.573 176.962 446.513 175.337 450.625 175.337H522.437C526.549 175.337 530.489 173.713 533.395 170.822C536.302 167.931 537.933 164.009 537.933 159.92C537.933 155.831 536.302 151.91 533.395 149.019C530.489 146.127 526.549 144.503 522.437 144.503H483.233C479.122 144.503 475.182 142.879 472.275 139.988C469.369 137.096 467.738 133.175 467.738 129.086C467.738 124.997 469.369 121.076 472.275 118.185C475.182 115.293 479.122 113.669 483.233 113.669H522.437C526.549 113.669 530.489 112.045 533.395 109.153C536.302 106.262 537.933 102.341 537.933 98.2521C537.933 94.163 536.302 90.2418 533.395 87.3504C530.489 84.4591 526.549 82.8349 522.437 82.8349H471.9C467.788 82.8349 463.848 81.2106 460.942 78.3193C458.035 75.4279 456.404 71.5067 456.404 67.4176C456.404 63.3289 458.035 59.4076 460.942 56.5163C463.848 53.6249 467.788 52.0007 471.9 52.0007H501.186C505.297 52.0007 509.237 50.3765 512.144 47.4851C515.05 44.5938 516.681 40.6726 516.681 36.5835C516.681 32.4948 515.05 28.5733 512.144 25.6821C509.237 22.7908 505.297 21.1665 501.186 21.1665H429.46C426.265 21.1599 423.194 22.3988 420.905 24.6178C418.62 26.8368 417.294 29.8594 417.22 33.0377Z" fill="#BDDFE9"/>
</g>
<path d="M424.171 263.434C424.174 266.436 423.584 269.409 422.429 272.184C421.278 274.959 419.586 277.48 417.455 279.605C415.324 281.73 412.793 283.417 410.008 284.568C407.219 285.72 404.232 286.314 401.214 286.317H99.418C97.0411 286.317 94.6874 285.851 92.4918 284.945C90.2961 284.039 88.3012 282.712 86.6214 281.039C84.9416 279.366 83.6099 277.379 82.7024 275.194C81.7949 273.008 81.329 270.666 81.332 268.301V30.107C81.332 25.3347 83.2377 20.7578 86.6295 17.3833C90.0213 14.0088 94.6213 12.113 99.418 12.113H326.368C320.401 12.2974 314.739 14.7856 310.583 19.0508C306.427 23.3159 304.103 29.023 304.103 34.9633C304.103 40.9038 306.427 46.6108 310.583 50.8761C314.739 55.141 320.401 57.6293 326.368 57.8138H369.69C375.66 57.998 381.319 60.4863 385.477 64.7515C389.632 69.0165 391.955 74.7238 391.955 80.664C391.955 86.6043 389.632 92.3116 385.477 96.5765C381.319 100.842 375.66 103.33 369.69 103.514H294.845C291.831 103.514 288.845 104.105 286.06 105.253C283.275 106.401 280.744 108.083 278.613 110.204C276.481 112.324 274.79 114.842 273.636 117.613C272.483 120.384 271.889 123.354 271.889 126.354C271.889 129.353 272.483 132.323 273.636 135.094C274.79 137.865 276.481 140.383 278.613 142.504C280.744 144.624 283.275 146.307 286.06 147.454C288.845 148.602 291.831 149.193 294.845 149.193H352.932C358.899 149.377 364.561 151.865 368.72 156.131C372.875 160.396 375.197 166.103 375.197 172.043C375.197 177.984 372.875 183.691 368.72 187.956C364.561 192.221 358.899 194.709 352.932 194.894H294.845C291.769 194.799 288.705 195.319 285.835 196.425C282.965 197.53 280.348 199.198 278.138 201.33C275.928 203.461 274.171 206.012 272.972 208.832C271.772 211.651 271.154 214.682 271.154 217.744C271.154 220.806 271.772 223.837 272.972 226.656C274.171 229.476 275.928 232.027 278.138 234.158C280.348 236.289 282.965 237.957 285.835 239.063C288.705 240.169 291.769 240.689 294.845 240.594H401.214C407.303 240.594 413.142 243.001 417.448 247.284C421.751 251.567 424.171 257.376 424.171 263.434Z" fill="#E0F0F5"/>
<path d="M175.548 93.252C175.536 104.723 172.943 116.046 167.961 126.39C162.978 136.735 155.731 145.839 146.751 153.034C137.772 160.23 127.288 165.334 116.068 167.974C104.847 170.614 93.1753 170.721 81.9075 168.289L81.2437 168.135V155.185C65.6366 154.406 50.6428 148.896 38.2751 139.393L37.6334 138.931C36.5927 138.16 35.5523 137.367 34.5561 136.53L34.2685 136.133C26.4537 124.573 21.9469 111.115 21.2307 97.2019C20.5145 83.2884 23.6159 69.443 30.2028 57.1487C36.7897 44.8544 46.614 34.5745 58.6232 27.4096C70.6327 20.2447 84.3747 16.4648 98.3778 16.4749H99.3296C102.387 16.5165 105.44 16.7371 108.472 17.1356C122.89 19.0192 136.476 24.9299 147.655 34.1824C148.231 34.6229 148.784 35.1075 149.315 35.592C157.475 42.717 164.03 51.4755 168.553 61.2945C168.995 62.2416 169.416 63.2108 169.792 64.1799C173.601 73.4033 175.557 83.2801 175.548 93.252Z" fill="#BDDFE9"/>
<path d="M207.735 226.345L194.343 203.263L183.03 222.755L175.77 210.245L153.035 171.085L130.322 210.245L107.587 249.404H153.035H167.557L167.534 249.426H194.343H221.128L207.735 226.345Z" fill="#A8FF8C"/>
<path d="M450.648 30.1084V268.28C450.651 270.647 450.188 272.992 449.282 275.18C448.376 277.368 447.043 279.357 445.365 281.032C443.684 282.708 441.69 284.037 439.492 284.944C437.294 285.851 434.938 286.318 432.561 286.318H401.214C407.182 286.134 412.844 283.646 416.999 279.38C421.154 275.116 423.479 269.408 423.479 263.468C423.479 257.528 421.154 251.82 416.999 247.555C412.844 243.29 407.182 240.802 401.214 240.618H294.845C291.769 240.713 288.705 240.192 285.835 239.086C282.965 237.981 280.347 236.313 278.138 234.182C275.928 232.05 274.171 229.499 272.971 226.68C271.772 223.86 271.153 220.829 271.153 217.767C271.153 214.705 271.772 211.675 272.971 208.855C274.171 206.035 275.928 203.484 278.138 201.353C280.347 199.222 282.965 197.554 285.835 196.448C288.705 195.343 291.769 194.822 294.845 194.917H352.932C358.899 194.732 364.561 192.244 368.72 187.979C372.875 183.714 375.197 178.007 375.197 172.067C375.197 166.126 372.875 160.419 368.72 156.154C364.561 151.889 358.899 149.401 352.932 149.216H294.845C291.83 149.216 288.845 148.626 286.06 147.478C283.275 146.33 280.744 144.648 278.612 142.527C276.481 140.406 274.79 137.888 273.636 135.117C272.482 132.346 271.889 129.376 271.889 126.377C271.889 123.378 272.482 120.408 273.636 117.637C274.79 114.866 276.481 112.348 278.612 110.227C280.744 108.107 283.275 106.424 286.06 105.276C288.845 104.129 291.83 103.538 294.845 103.538H369.69C375.66 103.353 381.319 100.865 385.477 96.6002C389.632 92.3349 391.955 86.6279 391.955 80.6874C391.955 74.7471 389.632 69.0398 385.477 64.7749C381.319 60.5096 375.66 58.0214 369.69 57.8372H326.368C320.4 57.6526 314.739 55.1644 310.583 50.8994C306.427 46.6341 304.103 40.9272 304.103 34.9869C304.103 29.0464 306.427 23.3394 310.583 19.0742C314.739 14.8091 320.4 12.3208 326.368 12.1365H432.625C437.408 12.1539 441.989 14.0544 445.365 17.4223C448.742 20.7901 450.641 25.3513 450.648 30.1084Z" fill="#BDDFE9"/>
<path d="M170.279 11.6294H213.092C213.092 12.9145 212.579 14.1469 211.666 15.0556C210.753 15.9643 209.514 16.4748 208.222 16.4748H175.149C173.858 16.4748 172.619 15.9643 171.706 15.0556C170.792 14.1469 170.279 12.9145 170.279 11.6294Z" fill="white"/>
<path d="M170.279 41.8469H213.092C213.092 43.1317 212.579 44.3642 211.666 45.2729C210.753 46.1816 209.514 46.6922 208.222 46.6922H175.149C173.858 46.6922 172.619 46.1816 171.706 45.2729C170.792 44.3642 170.279 43.1317 170.279 41.8469Z" fill="white"/>
<path opacity="0.7" d="M217.852 41.8469H260.643C260.643 43.1317 260.13 44.3642 259.217 45.2729C258.303 46.1816 257.065 46.6922 255.773 46.6922H222.722C221.43 46.6922 220.192 46.1816 219.278 45.2729C218.365 44.3642 217.852 43.1317 217.852 41.8469Z" fill="white"/>
<path d="M120.781 11.6294H163.572C163.572 12.9145 163.059 14.1469 162.145 15.0556C161.232 15.9643 159.993 16.4748 158.702 16.4748H125.651C124.359 16.4748 123.12 15.9643 122.207 15.0556C121.294 14.1469 120.781 12.9145 120.781 11.6294Z" fill="white"/>
<path d="M55.4982 80.7641L45.3812 75.5003L34.0027 76.5135L39.2716 66.4485L38.2533 55.1277L48.3921 60.3698L59.7706 59.3566L54.4799 69.4436L55.4982 80.7641Z" fill="#EEF0F1"/>
<path d="M48.1484 101.379C50.2635 101.379 51.9781 99.6731 51.9781 97.569C51.9781 95.4645 50.2635 93.7585 48.1484 93.7585C46.0333 93.7585 44.3186 95.4645 44.3186 97.569C44.3186 99.6731 46.0333 101.379 48.1484 101.379Z" fill="#EEF0F1"/>
<path d="M251.058 12.8404H232.441C231.853 12.8404 231.29 12.6084 230.875 12.1953C230.46 11.7823 230.227 11.2221 230.227 10.638C230.227 10.0539 230.46 9.49368 230.875 9.08063C231.29 8.66762 231.853 8.43555 232.441 8.43555H250.991C251.578 8.43555 252.141 8.66762 252.557 9.08063C252.972 9.49368 253.205 10.0539 253.205 10.638C253.205 11.2221 252.972 11.7823 252.557 12.1953C252.141 12.6084 251.578 12.8404 250.991 12.8404H251.058Z" fill="#183154"/>
<path d="M235.673 287H99.9274C94.5568 286.977 89.4138 284.839 85.6226 281.055C81.8311 277.271 79.6996 272.147 79.6938 266.804V28.6319C79.6999 23.2773 81.8405 18.1437 85.6461 14.3574C89.4517 10.5711 94.6115 8.44139 99.9935 8.43555H214.886C215.473 8.43555 216.036 8.66762 216.451 9.08063C216.866 9.49368 217.099 10.0539 217.099 10.638C217.099 11.2221 216.866 11.7823 216.451 12.1953C216.036 12.6084 215.473 12.8404 214.886 12.8404H99.9274C95.7312 12.8637 91.7141 14.537 88.7533 17.4953C85.7921 20.4537 84.1271 24.457 84.1214 28.6319V266.804C84.1271 270.99 85.8015 275.003 88.7768 277.964C91.752 280.924 95.7859 282.59 99.9935 282.595H235.739C236.326 282.595 236.889 282.827 237.304 283.24C237.72 283.653 237.953 284.214 237.953 284.798C237.953 285.382 237.72 285.942 237.304 286.355C236.889 286.768 236.326 287 235.739 287H235.673Z" fill="#183154"/>
<path d="M272.531 287H248.18C247.593 287 247.03 286.768 246.615 286.355C246.2 285.942 245.966 285.382 245.966 284.797C245.966 284.213 246.2 283.653 246.615 283.24C247.03 282.827 247.593 282.595 248.18 282.595H272.531C273.118 282.595 273.681 282.827 274.096 283.24C274.512 283.653 274.745 284.213 274.745 284.797C274.745 285.382 274.512 285.942 274.096 286.355C273.681 286.768 273.118 287 272.531 287Z" fill="#183154"/>
<path d="M283.688 287H281.873C281.286 287 280.723 286.768 280.308 286.355C279.893 285.942 279.659 285.382 279.659 284.797C279.659 284.213 279.893 283.653 280.308 283.24C280.723 282.827 281.286 282.595 281.873 282.595H283.688C284.276 282.595 284.838 282.827 285.254 283.24C285.669 283.653 285.902 284.213 285.902 284.797C285.902 285.382 285.669 285.942 285.254 286.355C284.838 286.768 284.276 287 283.688 287Z" fill="#183154"/>
<path d="M433.068 287.001H294.203C293.616 287.001 293.053 286.769 292.638 286.355C292.223 285.942 291.989 285.382 291.989 284.798C291.989 284.214 292.223 283.654 292.638 283.241C293.053 282.828 293.616 282.596 294.203 282.596H433.068C437.28 282.596 441.318 280.932 444.295 277.97C447.268 275.009 448.943 270.992 448.943 266.804V140.45C448.943 139.866 449.175 139.306 449.591 138.893C450.007 138.48 450.567 138.248 451.155 138.248C451.742 138.248 452.306 138.48 452.722 138.893C453.135 139.306 453.37 139.866 453.37 140.45V266.804C453.363 272.159 451.222 277.292 447.416 281.079C443.61 284.865 438.451 286.995 433.068 287.001Z" fill="#183154"/>
<path d="M451.155 130.804C450.568 130.804 450.007 130.572 449.591 130.158C449.175 129.745 448.943 129.185 448.943 128.601V125.121C448.943 124.537 449.175 123.977 449.591 123.564C450.007 123.151 450.568 122.919 451.155 122.919C451.742 122.919 452.306 123.151 452.722 123.564C453.135 123.977 453.37 124.537 453.37 125.121V128.601C453.37 129.185 453.135 129.745 452.722 130.158C452.306 130.572 451.742 130.804 451.155 130.804Z" fill="#183154"/>
<path d="M451.155 115.76C450.568 115.76 450.007 115.528 449.591 115.115C449.175 114.702 448.943 114.142 448.943 113.558V95.0134C448.943 94.4293 449.175 93.869 449.591 93.4559C450.007 93.0431 450.568 92.8108 451.155 92.8108C451.742 92.8108 452.306 93.0431 452.722 93.4559C453.135 93.869 453.37 94.4293 453.37 95.0134V113.558C453.37 114.142 453.135 114.702 452.722 115.115C452.306 115.528 451.742 115.76 451.155 115.76Z" fill="#183154"/>
<path d="M451.155 80.0369C450.567 80.0369 450.007 79.805 449.591 79.3919C449.175 78.9787 448.943 78.4187 448.943 77.8344V28.6319C448.943 24.4438 447.268 20.4271 444.295 17.4657C441.318 14.5042 437.28 12.8404 433.068 12.8404H276.051C275.464 12.8404 274.9 12.6084 274.485 12.1953C274.07 11.7823 273.837 11.2221 273.837 10.638C273.837 10.0539 274.07 9.49368 274.485 9.08063C274.9 8.66762 275.464 8.43555 276.051 8.43555H433.068C438.451 8.44139 443.613 10.5711 447.416 14.3574C451.222 18.1437 453.363 23.2773 453.37 28.6319V77.8344C453.37 78.4187 453.135 78.9787 452.722 79.3919C452.306 79.805 451.742 80.0369 451.155 80.0369Z" fill="#183154"/>
<path d="M263.433 12.8404H260.754C260.167 12.8404 259.604 12.6084 259.189 12.1953C258.774 11.7823 258.54 11.2221 258.54 10.638C258.54 10.0539 258.774 9.49368 259.189 9.08063C259.604 8.66762 260.167 8.43555 260.754 8.43555H263.433C264.02 8.43555 264.583 8.66762 264.998 9.08063C265.413 9.49368 265.646 10.0539 265.646 10.638C265.646 11.2221 265.413 11.7823 264.998 12.1953C264.583 12.6084 264.02 12.8404 263.433 12.8404Z" fill="#183154"/>
<path d="M159.366 31.1423C161.957 31.1423 164.059 29.0519 164.059 26.4731C164.059 23.8944 161.957 21.804 159.366 21.804C156.774 21.804 154.672 23.8944 154.672 26.4731C154.672 29.0519 156.774 31.1423 159.366 31.1423Z" fill="#8BBBC6"/>
<path d="M172.869 31.1423C175.461 31.1423 177.562 29.0519 177.562 26.4731C177.562 23.8944 175.461 21.804 172.869 21.804C170.277 21.804 168.176 23.8944 168.176 26.4731C168.176 29.0519 170.277 31.1423 172.869 31.1423Z" fill="#8BBBC6"/>
<path d="M186.993 31.1423C189.585 31.1423 191.686 29.0519 191.686 26.4731C191.686 23.8944 189.585 21.804 186.993 21.804C184.401 21.804 182.3 23.8944 182.3 26.4731C182.3 29.0519 184.401 31.1423 186.993 31.1423Z" fill="#8BBBC6"/>
<path d="M159.676 32.2223C158.529 32.2223 157.409 31.8844 156.456 31.2513C155.502 30.6182 154.759 29.7183 154.319 28.6652C153.879 27.6121 153.763 26.453 153.985 25.3342C154.207 24.2155 154.758 23.1873 155.567 22.3794C156.375 21.5715 157.407 21.0202 158.53 20.7951C159.654 20.57 160.819 20.6811 161.88 21.1145C162.94 21.5478 163.847 22.284 164.487 23.2301C165.127 24.1761 165.471 25.2895 165.475 26.4299C165.478 27.1895 165.33 27.9422 165.04 28.6449C164.75 29.3475 164.323 29.9862 163.785 30.5244C163.246 31.0626 162.605 31.4896 161.9 31.781C161.195 32.0723 160.439 32.2223 159.676 32.2223ZM159.676 22.906C158.964 22.906 158.269 23.1165 157.679 23.5105C157.088 23.9045 156.628 24.4644 156.358 25.1189C156.088 25.7734 156.02 26.4931 156.162 27.1864C156.304 27.8797 156.65 28.5153 157.156 29.0125C157.662 29.5097 158.305 29.846 159.003 29.9786C159.702 30.1113 160.424 30.0343 161.079 29.7575C161.733 29.4807 162.29 29.0165 162.679 28.424C163.068 27.8315 163.27 27.1374 163.262 26.4299C163.244 25.4931 162.86 24.6001 162.189 23.9417C161.519 23.2833 160.617 22.9116 159.676 22.906Z" fill="#183154"/>
<path d="M173.179 32.2223C172.033 32.2223 170.912 31.8844 169.959 31.2513C169.006 30.6182 168.262 29.7183 167.823 28.6652C167.383 27.6121 167.267 26.453 167.489 25.3342C167.711 24.2155 168.261 23.1873 169.07 22.3794C169.879 21.5715 170.91 21.0202 172.034 20.7951C173.158 20.57 174.323 20.6811 175.384 21.1145C176.443 21.5478 177.351 22.284 177.991 23.2301C178.631 24.1761 178.975 25.2895 178.979 26.4299C178.982 27.1895 178.834 27.9422 178.544 28.6449C178.254 29.3475 177.827 29.9862 177.288 30.5244C176.749 31.0626 176.109 31.4896 175.404 31.781C174.699 32.0723 173.943 32.2223 173.179 32.2223ZM173.179 22.906C172.468 22.906 171.773 23.1165 171.182 23.5105C170.592 23.9045 170.132 24.4644 169.862 25.1189C169.592 25.7734 169.523 26.4931 169.666 27.1864C169.808 27.8797 170.154 28.5153 170.659 29.0125C171.166 29.5097 171.809 29.846 172.507 29.9786C173.206 30.1113 173.928 30.0343 174.582 29.7575C175.237 29.4807 175.794 29.0165 176.183 28.424C176.571 27.8315 176.774 27.1374 176.765 26.4299C176.748 25.4931 176.363 24.6001 175.693 23.9417C175.023 23.2833 174.121 22.9116 173.179 22.906Z" fill="#183154"/>
<path d="M187.303 32.2223C186.156 32.2223 185.036 31.8844 184.083 31.2513C183.129 30.6182 182.386 29.7183 181.946 28.6652C181.507 27.6121 181.391 26.453 181.612 25.3342C181.835 24.2155 182.385 23.1873 183.194 22.3794C184.002 21.5715 185.034 21.0202 186.157 20.7951C187.281 20.57 188.447 20.6811 189.507 21.1145C190.567 21.5478 191.474 22.284 192.114 23.2301C192.754 24.1761 193.098 25.2895 193.102 26.4299C193.108 27.1903 192.962 27.9444 192.673 28.6483C192.384 29.3523 191.958 29.9922 191.418 30.5309C190.879 31.0697 190.237 31.4966 189.531 31.7869C188.824 32.0773 188.067 32.2252 187.303 32.2223ZM187.303 22.906C186.591 22.906 185.896 23.1165 185.306 23.5105C184.715 23.9045 184.255 24.4644 183.985 25.1189C183.715 25.7734 183.647 26.4931 183.789 27.1864C183.931 27.8797 184.277 28.5153 184.783 29.0125C185.289 29.5097 185.932 29.846 186.63 29.9786C187.329 30.1113 188.051 30.0343 188.706 29.7575C189.36 29.4807 189.917 29.0165 190.306 28.424C190.695 27.8315 190.898 27.1374 190.889 26.4299C190.877 25.4912 190.494 24.595 189.823 23.9354C189.151 23.2758 188.246 22.9059 187.303 22.906Z" fill="#183154"/>
<path d="M400.684 91.1592H266.509C265.335 91.1592 264.209 90.6953 263.379 89.869C262.549 89.0431 262.082 87.9228 262.082 86.7544C262.082 85.586 262.549 84.4657 263.379 83.6398C264.209 82.8135 265.335 82.3496 266.509 82.3496H400.684C401.859 82.3496 402.983 82.8135 403.812 83.6398C404.645 84.4657 405.111 85.586 405.111 86.7544C405.111 87.9228 404.645 89.0431 403.812 89.869C402.983 90.6953 401.859 91.1592 400.684 91.1592Z" fill="#8BBBC6"/>
<path d="M312.134 112.082H266.509C265.335 112.082 264.209 111.618 263.379 110.792C262.549 109.966 262.082 108.845 262.082 107.677C262.082 106.509 262.549 105.388 263.379 104.562C264.209 103.736 265.335 103.272 266.509 103.272H312.134C313.309 103.272 314.435 103.736 315.265 104.562C316.095 105.388 316.562 106.509 316.562 107.677C316.562 108.845 316.095 109.966 315.265 110.792C314.435 111.618 313.309 112.082 312.134 112.082Z" fill="#8BBBC6"/>
<path d="M312.134 159.7H266.509C265.335 159.7 264.209 159.236 263.379 158.41C262.549 157.584 262.082 156.463 262.082 155.295C262.082 154.127 262.549 153.006 263.379 152.18C264.209 151.354 265.335 150.89 266.509 150.89H312.134C313.309 150.89 314.435 151.354 315.265 152.18C316.095 153.006 316.562 154.127 316.562 155.295C316.562 156.463 316.095 157.584 315.265 158.41C314.435 159.236 313.309 159.7 312.134 159.7Z" fill="#389D9C"/>
<path d="M373.099 133.006H347.377C346.203 133.006 345.075 132.542 344.246 131.716C343.414 130.89 342.947 129.769 342.947 128.601C342.947 127.433 343.414 126.313 344.246 125.486C345.075 124.66 346.203 124.196 347.377 124.196H373.099C374.274 124.196 375.402 124.66 376.231 125.486C377.06 126.313 377.526 127.433 377.526 128.601C377.526 129.769 377.06 130.89 376.231 131.716C375.402 132.542 374.274 133.006 373.099 133.006Z" fill="#8BBBC6"/>
<path opacity="0.8" d="M413.545 133.006H387.82C386.649 133.006 385.521 132.542 384.692 131.716C383.86 130.89 383.393 129.769 383.393 128.601C383.393 127.433 383.86 126.313 384.692 125.486C385.521 124.66 386.649 124.196 387.82 124.196H413.545C414.72 124.196 415.844 124.66 416.677 125.486C417.506 126.313 417.972 127.433 417.972 128.601C417.972 129.769 417.506 130.89 416.677 131.716C415.844 132.542 414.72 133.006 413.545 133.006Z" fill="#8BBBC6"/>
<path d="M292.211 133.006H266.509C265.335 133.006 264.209 132.542 263.379 131.716C262.549 130.89 262.082 129.769 262.082 128.601C262.082 127.433 262.549 126.313 263.379 125.486C264.209 124.66 265.335 124.196 266.509 124.196H292.211C293.385 124.196 294.511 124.66 295.342 125.486C296.172 126.313 296.638 127.433 296.638 128.601C296.638 129.769 296.172 130.89 295.342 131.716C294.511 132.542 293.385 133.006 292.211 133.006Z" fill="#8BBBC6"/>
<path opacity="0.3" d="M332.656 133.006H306.954C305.78 133.006 304.654 132.542 303.823 131.716C302.993 130.89 302.527 129.769 302.527 128.601C302.527 127.433 302.993 126.313 303.823 125.486C304.654 124.66 305.78 124.196 306.954 124.196H332.656C333.83 124.196 334.956 124.66 335.785 125.486C336.618 126.313 337.084 127.433 337.084 128.601C337.084 129.769 336.618 130.89 335.785 131.716C334.956 132.542 333.83 133.006 332.656 133.006Z" fill="#8BBBC6"/>
<path d="M400.684 183.023H266.509C265.335 183.023 264.209 182.558 263.379 181.732C262.549 180.906 262.082 179.786 262.082 178.618C262.082 177.449 262.549 176.329 263.379 175.503C264.209 174.677 265.335 174.213 266.509 174.213H400.684C401.859 174.213 402.983 174.677 403.812 175.503C404.645 176.329 405.111 177.449 405.111 178.618C405.111 179.786 404.645 180.906 403.812 181.732C402.983 182.558 401.859 183.023 400.684 183.023Z" fill="#8BBBC6"/>
<path d="M312.134 203.947H266.509C265.335 203.947 264.209 203.482 263.379 202.656C262.549 201.831 262.082 200.71 262.082 199.542C262.082 198.373 262.549 197.253 263.379 196.427C264.209 195.601 265.335 195.137 266.509 195.137H312.134C313.309 195.137 314.435 195.601 315.265 196.427C316.095 197.253 316.562 198.373 316.562 199.542C316.562 200.71 316.095 201.831 315.265 202.656C314.435 203.482 313.309 203.947 312.134 203.947Z" fill="#8BBBC6"/>
<path d="M312.134 251.563H266.509C265.335 251.563 264.209 251.099 263.379 250.273C262.549 249.447 262.082 248.326 262.082 247.158C262.082 245.99 262.549 244.869 263.379 244.043C264.209 243.217 265.335 242.753 266.509 242.753H312.134C313.309 242.753 314.435 243.217 315.265 244.043C316.095 244.869 316.562 245.99 316.562 247.158C316.562 248.326 316.095 249.447 315.265 250.273C314.435 251.099 313.309 251.563 312.134 251.563Z" fill="#389D9C"/>
<path d="M373.099 224.869H347.377C346.203 224.869 345.075 224.405 344.246 223.579C343.414 222.753 342.947 221.633 342.947 220.464C342.947 219.296 343.414 218.176 344.246 217.35C345.075 216.523 346.203 216.06 347.377 216.06H373.099C374.274 216.06 375.402 216.523 376.231 217.35C377.06 218.176 377.526 219.296 377.526 220.464C377.526 221.633 377.06 222.753 376.231 223.579C375.402 224.405 374.274 224.869 373.099 224.869Z" fill="#8BBBC6"/>
<path opacity="0.8" d="M413.545 224.869H387.82C386.649 224.869 385.521 224.405 384.692 223.579C383.86 222.753 383.393 221.633 383.393 220.464C383.393 219.296 383.86 218.176 384.692 217.35C385.521 216.523 386.649 216.06 387.82 216.06H413.545C414.72 216.06 415.844 216.523 416.677 217.35C417.506 218.176 417.972 219.296 417.972 220.464C417.972 221.633 417.506 222.753 416.677 223.579C415.844 224.405 414.72 224.869 413.545 224.869Z" fill="#8BBBC6"/>
<path d="M292.211 224.869H266.509C265.335 224.869 264.209 224.405 263.379 223.579C262.549 222.753 262.082 221.633 262.082 220.464C262.082 219.296 262.549 218.176 263.379 217.35C264.209 216.523 265.335 216.06 266.509 216.06H292.211C293.385 216.06 294.511 216.523 295.342 217.35C296.172 218.176 296.638 219.296 296.638 220.464C296.638 221.633 296.172 222.753 295.342 223.579C294.511 224.405 293.385 224.869 292.211 224.869Z" fill="#8BBBC6"/>
<path opacity="0.3" d="M332.656 224.869H306.954C305.78 224.869 304.654 224.405 303.823 223.579C302.993 222.753 302.527 221.633 302.527 220.464C302.527 219.296 302.993 218.176 303.823 217.35C304.654 216.523 305.78 216.06 306.954 216.06H332.656C333.83 216.06 334.956 216.523 335.785 217.35C336.618 218.176 337.084 219.296 337.084 220.464C337.084 221.633 336.618 222.753 335.785 223.579C334.956 224.405 333.83 224.869 332.656 224.869Z" fill="#8BBBC6"/>
<path d="M164.236 78.5385C164.236 88.6199 162.239 98.6028 158.361 107.917C154.483 117.23 148.798 125.693 141.632 132.82C134.466 139.948 125.958 145.601 116.596 149.457C107.233 153.313 97.1985 155.296 87.0655 155.294C85.9364 155.294 84.8517 155.294 83.6784 155.294H83.0145C67.4075 154.515 52.4136 149.005 40.046 139.502L39.4261 139.039C38.2753 138.137 37.2127 137.19 36.0615 136.243C21.5398 123.596 12.3078 105.996 10.186 86.9116C8.06426 67.8274 13.2068 48.6451 24.5994 33.147C35.9921 17.6491 52.808 6.9605 71.7306 3.18918C90.6536 -0.582167 110.31 2.83745 126.824 12.7737C128.816 13.963 130.742 15.2404 132.602 16.5839L132.889 16.7821C140.005 22.0131 146.173 28.4108 151.13 35.7011C156.437 43.5042 160.243 52.2193 162.354 61.4036C162.575 62.3507 162.775 63.3199 162.952 64.2886C163.824 68.9888 164.254 73.7593 164.236 78.5385Z" fill="#A8FF8C"/>
<path d="M165.011 79.6404C164.999 99.9954 156.863 119.512 142.393 133.901C127.922 148.29 108.3 156.374 87.8407 156.373C87.1987 156.373 86.5345 156.373 85.8924 156.373C85.6713 156.373 85.4498 156.373 85.2283 156.373C69.7326 155.886 54.7502 150.733 42.2601 141.595L41.6402 141.132C40.5998 140.362 39.5593 139.569 38.5632 138.732C32.2314 133.492 26.7767 127.284 22.4031 120.341C22.8015 120.606 23.2222 120.848 23.6428 121.09C26.0126 122.534 28.4668 123.835 30.9923 124.988C41.0914 129.622 52.0807 132.019 63.2018 132.014C70.6287 132.02 78.0174 130.959 85.14 128.865L85.8038 128.667C99.7801 124.421 112.258 116.316 121.788 105.294C131.318 94.2727 137.509 80.7867 139.642 66.4037C139.796 65.4346 139.907 64.4875 140.018 63.5183C140.311 60.7678 140.459 58.0036 140.461 55.2374C140.463 50.4338 140.011 45.6406 139.11 40.9214C138.125 35.695 136.59 30.5865 134.528 25.6805C133.532 23.2882 132.409 20.9503 131.163 18.6768C130.455 17.3773 129.724 16.0999 128.949 14.8665L128.728 14.5142C130.8 15.7956 132.802 17.1851 134.727 18.6768L134.993 18.875C141.417 23.8433 147.013 29.7897 151.573 36.4946C157.22 44.6895 161.191 53.9092 163.262 63.6285C163.483 64.5756 163.683 65.5447 163.838 66.5138C164.605 70.8479 164.997 75.2396 165.011 79.6404Z" fill="#389D9C"/>
<path d="M87.0874 105.475C85.3912 105.477 83.7504 104.876 82.4609 103.779L64.4411 88.3622C63.6819 87.8329 63.0426 87.1515 62.564 86.3612C62.0854 85.5713 61.7786 84.6903 61.6628 83.7752C61.5474 82.8598 61.6256 81.9307 61.8927 81.0474C62.1599 80.1644 62.61 79.3464 63.2137 78.6466C63.8179 77.9468 64.5623 77.3805 65.3996 76.9843C66.2367 76.5882 67.1482 76.3706 68.0749 76.3463C69.0019 76.3216 69.9235 76.4901 70.7806 76.8415C71.6382 77.1926 72.4118 77.7185 73.0525 78.3853L85.8259 89.2873L104.045 62.6817C104.534 61.9589 105.163 61.3388 105.893 60.8573C106.624 60.3757 107.443 60.042 108.303 59.8755C109.164 59.7086 110.048 59.7123 110.907 59.8858C111.766 60.0593 112.582 60.3994 113.309 60.887C114.036 61.3742 114.659 61.9993 115.143 62.7261C115.627 63.4529 115.962 64.2679 116.13 65.1236C116.298 65.9795 116.294 66.8599 116.119 67.7146C115.945 68.5689 115.603 69.3808 115.113 70.104L92.9759 102.392C92.4091 103.215 91.6747 103.911 90.8206 104.435C89.9664 104.958 89.0116 105.298 88.0174 105.431C87.7087 105.467 87.3982 105.482 87.0874 105.475Z" fill="white"/>
<g opacity="0.15">
<path opacity="0.15" d="M57.446 49.2909C65.2216 49.2909 71.5253 43.0196 71.5253 35.2836C71.5253 27.5474 65.2216 21.276 57.446 21.276C49.67 21.276 43.3667 27.5474 43.3667 35.2836C43.3667 43.0196 49.67 49.2909 57.446 49.2909Z" fill="white"/>
<path opacity="0.15" d="M41.2193 62.9682C45.1072 62.9682 48.259 59.8325 48.259 55.9644C48.259 52.0962 45.1072 48.9606 41.2193 48.9606C37.3315 48.9606 34.1797 52.0962 34.1797 55.9644C34.1797 59.8325 37.3315 62.9682 41.2193 62.9682Z" fill="white"/>
</g>
<path d="M10.6702 92.0849C10.133 92.0903 9.61223 91.9011 9.20496 91.5523C8.79765 91.2039 8.53163 90.72 8.45645 90.1907C7.94356 86.4758 7.68469 82.7304 7.68164 78.9804C7.68164 78.3964 7.91486 77.8361 8.33003 77.4229C8.74519 77.0101 9.30823 76.7778 9.89536 76.7778C10.4825 76.7778 11.0455 77.0101 11.4607 77.4229C11.8759 77.8361 12.1091 78.3964 12.1091 78.9804C12.1084 82.5242 12.3525 86.0636 12.8396 89.574C12.9241 90.136 12.7871 90.709 12.457 91.1729C12.127 91.6364 11.6295 91.9555 11.0686 92.0629L10.6702 92.0849Z" fill="#183154"/>
<path d="M14.8097 108.205C14.3612 108.202 13.9242 108.064 13.5565 107.808C13.1889 107.553 12.9079 107.192 12.751 106.774C11.7554 104.133 10.8982 101.442 10.183 98.7126C10.1098 98.4323 10.0931 98.1399 10.1336 97.8529C10.1741 97.5659 10.2712 97.2896 10.4193 97.04C10.5674 96.7904 10.7635 96.5725 10.9965 96.3983C11.2295 96.2244 11.4947 96.0976 11.7769 96.0258C12.0589 95.9531 12.3526 95.9364 12.6411 95.9764C12.9296 96.0168 13.2073 96.1136 13.4582 96.2608C13.7091 96.4083 13.9283 96.6032 14.1033 96.8351C14.2782 97.067 14.4054 97.3307 14.4777 97.6117C15.1511 100.191 15.9565 102.734 16.8906 105.232C17.0923 105.775 17.0706 106.376 16.8303 106.904C16.5899 107.431 16.1503 107.844 15.6067 108.051C15.3541 108.155 15.0831 108.208 14.8097 108.205Z" fill="#183154"/>
<path d="M35.1536 74.1781C36.0343 74.1781 36.879 73.8301 37.5016 73.2104C38.1242 72.591 38.4742 71.7507 38.4742 70.8743C38.4742 69.9983 38.1242 69.158 37.5016 68.5383C36.879 67.9189 36.0343 67.5708 35.1536 67.5708C34.2729 67.5708 33.4283 67.9189 32.8056 68.5383C32.1829 69.158 31.833 69.9983 31.833 70.8743C31.833 71.7507 32.1829 72.591 32.8056 73.2104C33.4283 73.8301 34.2729 74.1781 35.1536 74.1781Z" fill="#FDFEFF"/>
<path d="M41.5515 97.9214C39.6035 93.1852 38.4517 88.1627 38.1422 83.0547C37.9211 79.8834 32.9401 79.8614 33.1615 83.0547C33.5528 89.0324 34.9367 94.9042 37.2569 100.432C38.4967 103.361 42.7913 100.828 41.5515 97.9214Z" fill="#FDFEFF"/>
<path d="M451.155 42.0228H155.093C154.506 42.0228 153.943 41.7909 153.528 41.3777C153.113 40.9646 152.88 40.4046 152.88 39.8203C152.88 39.2363 153.113 38.6759 153.528 38.2631C153.943 37.85 154.506 37.618 155.093 37.618H451.155C451.742 37.618 452.306 37.85 452.722 38.2631C453.135 38.6759 453.37 39.2363 453.37 39.8203C453.37 40.4046 453.135 40.9646 452.722 41.3777C452.306 41.7909 451.742 42.0228 451.155 42.0228Z" fill="#183154"/>
<path d="M224.825 252.686H163.616H103.624L152.902 167.738L182.875 219.407L194.21 199.893L224.825 252.686ZM171.187 248.281H217.166L194.21 208.637L182.875 228.151L152.902 176.547L111.284 248.237H171.209L171.187 248.281Z" fill="#183154"/>
<path d="M87.0658 157.937C85.8924 157.937 84.6969 157.937 83.5458 157.937H82.7933C66.7691 157.134 51.3779 151.461 38.6958 141.683L38.1423 141.287C36.8586 140.296 35.7295 139.327 34.6005 138.358C28.73 133.212 23.6573 127.23 19.5473 120.606C18.1465 118.341 16.8682 116.003 15.7175 113.602C15.5635 113.341 15.4654 113.051 15.4292 112.75C15.393 112.45 15.4195 112.145 15.507 111.855C15.5946 111.565 15.7413 111.296 15.9381 111.065C16.1348 110.834 16.3773 110.645 16.6505 110.512C16.9237 110.378 17.2216 110.302 17.5256 110.288C17.8297 110.274 18.1334 110.323 18.4177 110.431C18.702 110.539 18.9609 110.705 19.1781 110.916C19.3953 111.129 19.5661 111.383 19.6801 111.664C20.7869 113.867 21.8938 116.069 23.3106 118.161C27.2183 124.427 32.0459 130.077 37.6332 134.922C38.6958 135.825 39.8469 136.75 40.8874 137.653L41.5073 138.093C53.5047 147.357 68.0689 152.738 83.236 153.51H83.7894C84.9849 153.51 86.0032 153.51 87.1765 153.51C107.024 153.464 126.044 145.594 140.072 131.626C154.1 117.656 161.993 98.7263 162.022 78.9797C162.024 74.3086 161.58 69.6479 160.694 65.0605C160.517 64.1134 160.34 63.1663 160.118 62.2633C158.096 53.398 154.441 44.9822 149.338 37.4418L149.205 37.2435C144.43 30.2025 138.487 24.0209 131.628 18.9633L131.296 18.7431C129.348 17.2748 127.444 16.0194 125.584 14.9769C115.106 8.7329 103.252 5.13125 91.0543 4.4854C78.8571 3.83955 66.6859 6.16909 55.6003 11.2713C44.5144 16.3734 34.8495 24.0936 27.4473 33.7602C20.0449 43.4264 15.129 54.7462 13.1275 66.7341C12.9446 67.202 12.6067 67.5935 12.1697 67.8441C11.7327 68.0944 11.2228 68.1892 10.7244 68.1121C10.226 68.035 9.76894 67.791 9.42899 67.4203C9.08904 67.0495 8.88653 66.5743 8.85498 66.0734C10.9838 53.392 16.1907 41.4187 24.0238 31.1926C31.8568 20.9664 42.0795 12.7962 53.8051 7.39078C65.5306 1.9854 78.4047 -0.491926 91.3103 0.173745C104.216 0.839417 116.764 4.62797 127.864 11.2107C129.835 12.4001 131.849 13.7215 133.797 15.1311L134.107 15.3513C141.371 20.6721 147.673 27.181 152.747 34.6008L152.902 34.8207C158.377 42.8364 162.296 51.8005 164.457 61.2501C164.679 62.2192 164.9 63.2104 165.077 64.2236C165.997 69.0819 166.464 74.0143 166.472 78.9577C166.448 99.901 158.074 119.98 143.187 134.787C128.3 149.594 108.116 157.92 87.0658 157.937Z" fill="#183154"/>
<g opacity="0.4">
<path opacity="0.4" d="M77.2807 53.8275C85.0564 53.8275 91.36 47.5562 91.36 39.8199C91.36 32.0838 85.0564 25.8125 77.2807 25.8125C69.505 25.8125 63.2014 32.0838 63.2014 39.8199C63.2014 47.5562 69.505 53.8275 77.2807 53.8275Z" fill="white"/>
<path opacity="0.4" d="M61.0541 67.5043C64.9422 67.5043 68.0937 64.3687 68.0937 60.5009C68.0937 56.6327 64.9422 53.4971 61.0541 53.4971C57.1662 53.4971 54.0144 56.6327 54.0144 60.5009C54.0144 64.3687 57.1662 67.5043 61.0541 67.5043Z" fill="white"/>
</g>
<path d="M179.621 178.617C187.324 178.617 193.568 172.405 193.568 164.742C193.568 157.079 187.324 150.867 179.621 150.867C171.919 150.867 165.675 157.079 165.675 164.742C165.675 172.405 171.919 178.617 179.621 178.617Z" fill="#A8FF8C"/>
<path d="M180.396 180.82C177.199 180.82 174.075 179.878 171.418 178.111C168.76 176.344 166.689 173.833 165.466 170.895C164.242 167.957 163.923 164.725 164.546 161.606C165.17 158.487 166.709 155.622 168.969 153.374C171.229 151.125 174.108 149.594 177.243 148.974C180.378 148.353 183.627 148.672 186.58 149.889C189.533 151.105 192.057 153.166 193.832 155.81C195.608 158.454 196.556 161.563 196.556 164.743C196.55 169.005 194.846 173.091 191.816 176.105C188.787 179.119 184.68 180.815 180.396 180.82ZM180.396 153.092C178.074 153.092 175.805 153.777 173.875 155.06C171.945 156.344 170.441 158.169 169.554 160.303C168.667 162.437 168.436 164.785 168.89 167.05C169.345 169.315 170.464 171.395 172.107 173.027C173.751 174.658 175.843 175.768 178.12 176.216C180.398 176.664 182.758 176.43 184.901 175.543C187.045 174.656 188.875 173.156 190.162 171.234C191.449 169.311 192.133 167.052 192.128 164.743C192.122 161.651 190.884 158.687 188.684 156.503C186.485 154.319 183.504 153.092 180.396 153.092Z" fill="#183154"/>
</g>
</g>
<defs>
<clipPath id="clip0_37_960">
<rect width="538" height="287" fill="white"/>
</clipPath>
</defs>
</svg>
